<?xml version="1.0" encoding="UTF-8"?>
<svg width="375.523789px" height="342.797354px" viewBox="0 0 375.523789 342.797354" version="1.1"
     xmlns="http://www.w3.org/2000/svg">
    <title>blob</title>
    <g id="Page-1" stroke="none" stroke-width="1" fill="none" fill-rule="evenodd">
        <g id="6397229" transform="translate(-35.0002, -27.4578)" fill="#E33537">
            <path d="M46.051,287.903 C40.533,274.677 34.231,261.082 35.077,246.384 C36.221,226.51 46.62,209.625 62.733,198.234 C75.355,189.311 89.91,183.611 103.784,176.793 C119.934,168.855 136.527,157.935 141.062,139.388 C147.093,114.715 135.086,88.437 145.596,64.465 C154.269,44.682 174.305,28.115 196.422,27.479 C220.088,26.799 238.879,42.604 258.665,53.11 C283.521,66.311 303.995,61.365 329.128,52.565 C357.884,42.498 383.807,56.596 397.934,82.198 C410.401,104.791 412.938,130.516 408.479,155.626 C406.235,168.264 400.134,180.544 396.017,192.809 C387.609,217.848 381.997,242.445 390.545,268.233 C393.979,278.595 400.121,289.091 400.331,300.225 C400.533,310.949 394.3,321.418 386.395,328.254 C377.06,336.324 365.033,340.595 353.009,343.364 C314.042,352.343 274.102,357.444 234.542,363.324 C208.626,367.176 182.509,371.04 156.283,370.117 C128.58,369.143 106.651999,367.037627 82.0779987,354.770627 C72.8859987,350.181627 65.482,341.446977 62.161,333.385 C56.7517541,320.253648 53.863,306.643 48.47,293.697 C47.665,291.766 46.856,289.835 46.051,287.903 Z" id="blob"></path>
        </g>
    </g>
</svg>