<?xml version="1.0" encoding="UTF-8"?>
<svg width="50px" height="50px" viewBox="0 0 50 50" version="1.1" xmlns="http://www.w3.org/2000/svg">
    <title>6397229</title>
    <g id="Page-1" stroke="none" stroke-width="1" fill="none" fill-rule="evenodd">
        <g id="6397229" transform="translate(-51, -52)">
            <g id="Group-3" transform="translate(51, 52)">
                <path d="M26.0575779,45.6268214 C25.7072489,45.6420329 25.352357,45.6521739 24.997972,45.6521739 C24.6425732,45.6521739 24.2927511,45.6420329 23.9434361,45.6268214 C13.3874299,45.0893477 4.90044348,36.6013194 4.37317551,26.0445244 C4.35847284,25.6997299 4.34782609,25.349865 4.34782609,25 C4.34782609,24.639994 4.35847284,24.2850586 4.37317551,23.9301231 C4.91565313,13.3885396 13.3980766,4.91065233 23.9434361,4.37317862 C24.2927511,4.3579671 24.6425732,4.34782609 24.997972,4.34782609 C25.352357,4.34782609 25.7072489,4.3579671 26.0575779,4.37317862 C36.6075002,4.91065233 45.0944866,13.4037511 45.6268245,23.9554756 C45.6420341,24.3002701 45.6521739,24.650135 45.6521739,25 C45.6521739,25.360006 45.6420341,25.7149414 45.6268245,26.0698769 C45.0848539,36.6114604 36.5978674,45.0893477 26.0575779,45.6268214 Z M46.6933478,23.5602214 C45.9816819,12.7237253 37.2880645,4.02909065 26.4523275,3.31174513 C25.9695749,3.27613224 25.4863135,3.26086957 24.9979652,3.26086957 C24.5096169,3.26086957 24.0258469,3.27613224 23.5476725,3.31174513 C12.7231269,4.02400309 4.03459643,12.7084626 3.31224788,23.5347836 C3.27613045,24.0181015 3.26086957,24.506507 3.26086957,25 C3.26086957,25.4833179 3.27613045,25.9615482 3.30665222,26.4397786 C4.01882684,37.2762747 12.7124442,45.9759969 23.5476725,46.6882549 C24.0258469,46.7238678 24.5096169,46.7391304 24.9979652,46.7391304 C25.4863135,46.7391304 25.9695749,46.7238678 26.4523275,46.6882549 C37.2824688,45.9709093 45.9659123,37.2915374 46.6882608,26.4652164 C46.7243782,25.9818985 46.7391304,25.493493 46.7391304,25 C46.7391304,24.5166821 46.7243782,24.0384518 46.6933478,23.5602214 L46.6933478,23.5602214 Z" id="Fill-10" fill="#3A8193"></path>
                <g id="Group-2">
                    <path d="M26.76024,47.826087 L26.4802607,47.1053177 L26.0815495,46.0941667 L24.9979261,43.3355392 L23.9194874,46.0941667 L23.5197393,47.1053177 L23.23976,47.826087 C12.0094808,46.9704976 3.02473891,37.9790313 2.17391304,26.7474764 L2.8894156,26.4674654 L3.90563662,26.0681903 L6.66395082,24.9896292 L3.90563662,23.9058827 L2.89511888,23.5066077 L2.17391304,23.2265966 C3.03977483,12.0054126 12.0198504,3.0295024 23.23976,2.17391304 L23.5197393,2.89468226 L23.9194874,3.90583332 L24.9979261,6.66446082 L26.0815495,3.90583332 L26.4802607,2.89468226 L26.76024,2.17391304 C37.9905192,3.0295024 46.9711133,12.0209687 47.826087,23.2525236 L47.1105844,23.5325346 L46.0943634,23.9318097 L43.3308644,25.0103708 L46.0943634,26.0941173 L47.1053996,26.4933923 L47.8209022,26.7734034 C46.9602252,37.9945874 37.9806681,46.9704976 26.76024,47.826087 Z M24.9977118,0 C11.2121305,0 0,11.2161887 0,25 C0,38.7838113 11.2121305,50 24.9977118,50 C38.7822762,50 50,38.7838113 50,25 C50,11.2161887 38.7822762,0 24.9977118,0 L24.9977118,0 Z" id="Fill-11" fill="#294F59"></path>
                    <g id="Group" transform="translate(17.2276, 10.6676)">
                        <polyline id="Fill-12" fill="#E15B41" points="16.128737 0 12.5086435 16.4587147 4.23276388 11.9046166 16.128737 0"></polyline>
                        <path d="M3.44874924,13.9678666 L0,29.3069961 L11.6356518,17.7704901 C11.7205613,17.6926988 11.8024202,17.6103315 11.8822453,17.5259304 L11.9671548,17.4415294 L11.9635957,17.4394956 C12.2117145,17.1639211 12.4354281,16.8598739 12.6220256,16.5212528 C13.9251576,14.1534472 13.0623348,11.1775473 10.6940207,9.87441529 C8.32621517,8.5712833 5.35082367,9.4346146 4.04718324,11.8019117 C3.66839536,12.4913565 3.47773032,13.2321538 3.44874924,13.9678666" id="Fill-13" fill="#3A8193"></path>
                        <path d="M5.99857637,12.8762457 C6.7088672,11.5858247 8.33028269,11.1155176 9.62070368,11.8258084 C10.9106162,12.5355908 11.3809233,14.1570063 10.6711409,15.4474273 C9.96085011,16.7373398 8.33943461,17.2076469 7.04901363,16.4978646 C5.75859264,15.7875737 5.28879398,14.1661582 5.99857637,12.8762457" id="Fill-14" fill="#E15B41"></path>
                    </g>
                </g>
            </g>
        </g>
    </g>
</svg>