<?xml version="1.0" encoding="UTF-8"?>
<svg width="290px" height="56px" viewBox="0 0 290 56" version="1.1" xmlns="http://www.w3.org/2000/svg" xmlns:xlink="http://www.w3.org/1999/xlink">
    <title>logo</title>
    <g id="Page-1" stroke="none" stroke-width="1" fill="none" fill-rule="evenodd">
        <g id="6397229" transform="translate(-460, -398)">
            <text id="City" font-family="Panton-Trial-Black, Panton-Trial" font-size="50" font-weight="800" letter-spacing="-0.5" fill="#F3F2ED">
                <tspan x="525.4023" y="442.103104">City</tspan>
            </text>
            <circle id="Oval" fill="#F4F6FF" cx="488" cy="426" r="23"></circle>
            <text id="Scout" font-family="Panton-Trial-Black, Panton-Trial" font-size="50" font-weight="800" letter-spacing="-0.5" fill="#E0DFDA">
                <tspan x="618.506974" y="445.103104">Scout</tspan>
            </text>
            <g id="Group-3" transform="translate(460, 398)">
                <path d="M29.2290168,51.9705377 C28.8218976,51.9882151 28.4094759,52 27.9976433,52 C27.5846324,52 27.1781024,51.9882151 26.7721615,51.9705377 C14.5049712,51.3459367 4.64219958,41.4819543 4.0294587,29.2138473 C4.01237265,28.8131598 4,28.4065799 4,28 C4,27.5816352 4.01237265,27.1691628 4.0294587,26.7566904 C4.6598748,14.5062607 14.5173438,4.65406334 26.7721615,4.02946231 C27.1781024,4.01178493 27.5846324,4 27.9976433,4 C28.4094759,4 28.8218976,4.01178493 29.2290168,4.02946231 C41.4891371,4.65406334 51.3519087,14.5239381 51.9705413,26.7861527 C51.9882165,27.1868402 52,27.5934201 52,28 C52,28.4183648 51.9882165,28.8308372 51.9705413,29.2433096 C51.3407144,41.4937393 41.4779428,51.3459367 29.2290168,51.9705377 Z M28,50.8087725 C40.7025492,50.8087725 51,40.5113217 51,27.8087725 C51,15.1062232 40.7025492,4.80877245 28,4.80877245 C15.2974508,4.80877245 5,15.1062232 5,27.8087725 C5,40.5113217 15.2974508,50.8087725 28,50.8087725 Z" id="Fill-10" fill="#BEE5D5"></path>
                <g id="Group-2">
                    <path d="M29.9714688,53.5652174 L29.657892,52.7579559 L29.2113355,51.6254667 L27.9976772,48.5358039 L26.7898259,51.6254667 L26.342108,52.7579559 L26.0285312,53.5652174 C13.4506185,52.6069573 3.38770758,42.536515 2.43478261,29.9571736 L3.23614547,29.6435612 L4.37431301,29.1963732 L7.46362492,27.9883847 L4.37431301,26.7745886 L3.24253315,26.3274006 L2.43478261,26.0137882 C3.40454781,13.4460621 13.4622324,3.39304269 26.0285312,2.43478261 L26.342108,3.24204413 L26.7898259,4.37453331 L27.9976772,7.46419612 L29.2113355,4.37453331 L29.657892,3.24204413 L29.9714688,2.43478261 C42.5493815,3.39304269 52.6076468,13.463485 53.5652174,26.0428264 L52.7638545,26.3564388 L51.625687,26.8036268 L48.5305681,28.0116153 L51.625687,29.2254114 L52.7580476,29.6725994 L53.5594104,29.9862118 C52.5954522,42.5539379 42.5383483,52.6069573 29.9714688,53.5652174 Z M27.9974372,0 C12.5575861,0 0,12.5621314 0,28 C0,43.4378686 12.5575861,56 27.9974372,56 C43.4361493,56 56,43.4378686 56,28 C56,12.5621314 43.4361493,0 27.9974372,0 L27.9974372,0 Z" id="Fill-11" fill="#67A1B9"></path>
                    <g id="Group" transform="translate(19.2949, 11.9477)">
                        <polyline id="Fill-12" fill="#FE9064" points="18.0641855 0 14.0096807 18.4337604 4.74069555 13.3331706 18.0641855 0"></polyline>
                        <path d="M3.86259915,15.6440106 L0,32.8238357 L13.03193,19.902949 C13.1270287,19.8158227 13.2187106,19.7235713 13.3081147,19.6290421 L13.4032133,19.5345129 L13.3992272,19.5322351 C13.6771202,19.2235916 13.9276795,18.8830588 14.1366687,18.5038031 C15.5961765,15.8518609 14.6298149,12.518853 11.9773032,11.0593451 C9.32536099,9.5998373 5.99292251,10.5667684 4.53284523,13.2181411 C4.10860281,13.9903193 3.89505796,14.8200122 3.86259915,15.6440106" id="Fill-13" fill="#67A1B9"></path>
                        <path d="M6.71840553,14.4213952 C7.51393126,12.9761237 9.32991662,12.4493797 10.7751881,13.2449054 C12.2198902,14.0398617 12.7466341,15.8558471 11.9516779,17.3011186 C11.1561521,18.7458206 9.34016677,19.2725646 7.89489526,18.4776083 C6.44962375,17.6820826 5.92344926,15.8660972 6.71840553,14.4213952" id="Fill-14" fill="#FE9064"></path>
                    </g>
                </g>
            </g>
        </g>
    </g>
</svg>