<?xml version="1.0"?>
<svg width="185" height="27" xmlns="http://www.w3.org/2000/svg" version="1.0">
    <g class="layer">
        <title>Layer 1</title>
        <g class="iconlinesvg-g iconlinesvg" fill="#333" id="svg_5">
            <g class="tp-name" id="svg_6">
                <path d="m11.02,24.86q-3.15,0 -5.65,-1.36q-2.5,-1.37 -3.94,-3.94q-1.43,-2.57 -1.43,-6t1.43,-5.99q1.44,-2.57 3.94,-3.94t5.65,-1.37q2.14,0 3.82,0.51q1.69,0.5 3.36,1.44q0.69,0.38 0.69,1.2q0,0.47 -0.35,0.83q-0.34,0.37 -0.91,0.37q-0.31,0 -0.57,-0.13q-1.38,-0.72 -2.7,-1.1q-1.33,-0.38 -3.06,-0.38q-2.7,0 -4.61,1.12q-1.9,1.12 -2.86,3.05q-0.96,1.94 -0.96,4.39q0,2.46 0.96,4.4q0.96,1.93 2.86,3.05q1.91,1.12 4.61,1.12q1.73,0 3.06,-0.38q1.32,-0.38 2.7,-1.1q0.26,-0.13 0.57,-0.13q0.57,0 0.91,0.35q0.35,0.34 0.35,0.85q0,0.82 -0.69,1.19q-1.67,0.95 -3.36,1.45q-1.68,0.5 -3.82,0.5zm12.4,-0.15q-0.6,0 -1.01,-0.41q-0.41,-0.41 -0.41,-1.01l0,-19.42q0,-0.6 0.41,-1.03q0.41,-0.42 1.01,-0.42q0.6,0 1.02,0.42q0.43,0.43 0.43,1.03l0,19.42q0,0.6 -0.43,1.01q-0.42,0.41 -1.02,0.41zm13.75,0q-0.6,0 -1.01,-0.41q-0.41,-0.41 -0.41,-1.01l0,-18.04l-6.42,0q-0.57,0 -0.94,-0.37q-0.38,-0.38 -0.38,-0.95t0.38,-0.96q0.37,-0.39 0.94,-0.39l15.68,0q0.56,0 0.96,0.39q0.39,0.39 0.39,0.96t-0.39,0.95q-0.4,0.37 -0.96,0.37l-6.39,0l0,18.04q0,0.6 -0.43,1.01q-0.42,0.41 -1.02,0.41zm22.05,0q-0.59,0 -1.02,-0.41q-0.42,-0.41 -0.42,-1.01l0,-8.03l-7.53,-10.54q-0.25,-0.41 -0.25,-0.85q0,-0.6 0.39,-1.03q0.4,-0.42 1,-0.42q0.78,0 1.25,0.72l6.58,9.57l6.59,-9.57q0.46,-0.72 1.25,-0.72q0.6,0 1.01,0.42q0.41,0.43 0.38,1.03q0,0.44 -0.25,0.85l-7.56,10.54l0,8.03q0,0.6 -0.41,1.01q-0.41,0.41 -1.01,0.41zm21.16,0.15q-4,0 -7.49,-1.51q-0.38,-0.15 -0.63,-0.52q-0.25,-0.36 -0.25,-0.77q0,-0.53 0.36,-0.93q0.36,-0.39 0.93,-0.39q0.31,0 0.59,0.13q2.9,1.29 6.21,1.29q5.5,0 5.5,-3.62q0,-0.95 -0.7,-1.58q-0.71,-0.63 -1.75,-0.99t-2.96,-0.86q-2.55,-0.66 -4.12,-1.28q-1.58,-0.61 -2.71,-1.84t-1.13,-3.27q0,-1.8 0.94,-3.26q0.94,-1.47 2.79,-2.33q1.84,-0.87 4.42,-0.87q3.46,0 6.26,1.04q0.88,0.32 0.88,1.26q0,0.5 -0.34,0.91q-0.35,0.41 -0.91,0.41q-0.19,0 -0.51,-0.12q-2.45,-0.85 -5.07,-0.85q-2.48,0 -4.04,0.94q-1.56,0.95 -1.56,2.65q0,1.13 0.74,1.84q0.74,0.71 1.86,1.1q1.12,0.39 3.04,0.83q2.48,0.6 4.01,1.2q1.53,0.6 2.61,1.86q1.09,1.26 1.09,3.4q0,1.76 -1.01,3.16q-1.01,1.4 -2.83,2.19q-1.83,0.78 -4.22,0.78zm22.64,0q-3.15,0 -5.65,-1.36q-2.5,-1.37 -3.94,-3.94q-1.43,-2.57 -1.43,-6t1.43,-5.99q1.44,-2.57 3.94,-3.94t5.65,-1.37q2.14,0 3.82,0.51q1.69,0.5 3.36,1.44q0.69,0.38 0.69,1.2q0,0.47 -0.35,0.83q-0.34,0.37 -0.91,0.37q-0.31,0 -0.57,-0.13q-1.38,-0.72 -2.7,-1.1q-1.33,-0.38 -3.06,-0.38q-2.7,0 -4.61,1.12q-1.9,1.12 -2.86,3.05q-0.96,1.94 -0.96,4.39q0,2.46 0.96,4.4q0.96,1.93 2.86,3.05q1.91,1.12 4.61,1.12q1.73,0 3.06,-0.38q1.32,-0.38 2.7,-1.1q0.26,-0.13 0.57,-0.13q0.57,0 0.91,0.35q0.35,0.34 0.35,0.85q0,0.82 -0.69,1.19q-1.67,0.95 -3.36,1.45q-1.68,0.5 -3.82,0.5z"
                      data-gra="path-name" id="svg_7"/>
                <g class="imagesvg" id="svg_8" transform="translate(191.325, 111.438)">
                    <path class="image-rect" d="m-77.32,-111.44l27.12,0l0,27.12l-27.12,0l0,-27.12z" fill="none"
                          id="svg_9"/>
                    <g id="svg_1">
                        <svg class="image-svg-svg primary" filter="url(#a)" height="27.12" id="svg_10" width="27.12"
                             x="-77.32" y="-111.44">
                            <g id="svg_2">
                                <svg id="svg_11" viewBox="0.818 0.375 98.807 98.808" xmlns="http://www.w3.org/2000/svg">
                                    <path d="m50.22,0.38c-27.24,0 -49.4,22.16 -49.4,49.4s22.16,49.4 49.4,49.4s49.41,-22.16 49.41,-49.4s-22.17,-49.4 -49.41,-49.4zm0,85.63c-19.98,0 -36.23,-16.26 -36.23,-36.23s16.25,-36.23 36.23,-36.23s36.23,16.25 36.23,36.23s-16.25,36.23 -36.23,36.23z"
                                          id="svg_12"/>
                                    <path d="m50.22,26.73c-12.72,0 -23.05,10.34 -23.05,23.05s10.33,23.06 23.05,23.06s23.05,-10.34 23.05,-23.05s-10.34,-23.06 -23.05,-23.06zm0,32.93c-5.45,0 -9.88,-4.43 -9.88,-9.88s4.44,-9.88 9.88,-9.88s9.88,4.43 9.88,9.88s-4.44,9.88 -9.88,9.88z"
                                          id="svg_13"/>
                                </svg>
                            </g>
                        </svg>
                    </g>
                    <defs transform="translate(-1.32001, -1.438) translate(-76, -110)">
                        <filter id="a">
                            <feColorMatrix class="icon-fecolormatrix"
                                           values="0 0 0 0 0.19921875 0 0 0 0 0.19921875 0 0 0 0 0.19921875 0 0 0 1 0"/>
                        </filter>
                    </defs>
                </g>
                <path d="m154.04,24.86q-2.23,0 -4.31,-0.94q-2.08,-0.94 -3.4,-2.88q-1.32,-1.94 -1.32,-4.74l0,-12.43q0,-0.6 0.41,-1.03q0.4,-0.42 1,-0.42t1.03,0.42q0.42,0.43 0.42,1.03l0,12.53q0,1.89 0.87,3.21q0.86,1.32 2.28,1.98q1.42,0.66 3.02,0.66q1.61,0 3.02,-0.66q1.42,-0.66 2.29,-1.98q0.86,-1.32 0.86,-3.21l0,-12.53q0,-0.6 0.41,-1.03q0.41,-0.42 1.01,-0.42q0.6,0 1.02,0.42q0.43,0.43 0.43,1.03l0,12.43q0,2.8 -1.33,4.74q-1.32,1.94 -3.4,2.88q-2.07,0.94 -4.31,0.94zm22.13,-0.15q-0.6,0 -1.01,-0.41q-0.41,-0.41 -0.41,-1.01l0,-18.04l-6.42,0q-0.57,0 -0.94,-0.37q-0.38,-0.38 -0.38,-0.95t0.38,-0.96q0.37,-0.39 0.94,-0.39l15.68,0q0.56,0 0.96,0.39q0.39,0.39 0.39,0.96t-0.39,0.95q-0.4,0.37 -0.96,0.37l-6.39,0l0,18.04q0,0.6 -0.43,1.01q-0.42,0.41 -1.02,0.41z"
                      data-gra="path-name" id="svg_14"/>
            </g>
        </g>
    </g>
</svg>